<?xml version="1.0" encoding="iso-8859-1"?>
<!-- Generator: Adobe Illustrator 19.0.0, SVG Export Plug-In . SVG Version: 6.00 Build 0)  -->
<svg version="1.1" id="Capa_1" xmlns="http://www.w3.org/2000/svg" xmlns:xlink="http://www.w3.org/1999/xlink" x="0px" y="0px"
	 viewBox="0 0 512.907 512.907" style="enable-background:new 0 0 512.907 512.907;" xml:space="preserve">
<path style="fill:#334A5E;" d="M475.991,215.52c0,0-208.576-127.083-209.717-127.627v-9.643c17.173-4.373,29.92-20,29.92-38.496
	C296.194,17.835,278.37,0,256.45,0c-21.92,0-39.755,17.835-39.755,39.755c0,5.419,4.405,9.813,9.824,9.813
	c5.44,0,9.824-4.395,9.824-9.813c0-11.083,9.024-20.107,20.107-20.107c11.083,0,20.096,9.024,20.096,20.107
	s-9.013,20.075-20.096,20.075c-5.419,0-9.824,4.416-9.824,9.835v18.229C245.485,88.437,36.919,215.52,36.919,215.52
	c-18.325,12.853-9.237,41.664,13.141,41.664h412.768C485.218,257.184,494.317,228.373,475.991,215.52 M465.943,235.275
	c-0.715,2.272-2.325,2.272-3.104,2.272H50.061c-0.768,0-2.389,0-3.104-2.272c-0.704-2.272,0.608-3.211,1.227-3.648l206.4-125.728
	c0.693-0.48,1.397-0.587,1.867-0.587c0.469,0,1.163,0.107,1.867,0.587l206.389,125.728
	C465.346,232.064,466.658,233.003,465.943,235.275"/>
<path style="fill:#54C0EB;" d="M102.018,421.835c14.379-14.4,39.445-14.379,53.824,0c8.608,8.587,22.581,8.587,31.189,0
	c14.379-14.357,39.445-14.379,53.824,0c8.608,8.587,22.581,8.587,31.189,0c14.379-14.4,39.445-14.379,53.824,0
	c8.608,8.587,22.581,8.587,31.189,0c14.379-14.357,39.445-14.379,53.824,0c5.76,5.749,13.899,7.563,21.248,5.6V240.523
	c0-11.787-9.557-21.333-21.333-21.333H102.103c-11.776,0-21.333,9.547-21.333,21.333v186.912
	C88.13,429.397,96.258,427.584,102.018,421.835"/>
<path style="fill:#F2F2F2;" d="M426.466,444.267c-9.739,0-19.477-3.712-26.891-11.125c-8.597-8.587-22.581-8.608-31.211,0
	c-14.837,14.837-38.976,14.837-53.813,0c-8.597-8.587-22.581-8.608-31.2,0c-14.837,14.837-38.976,14.837-53.813,0
	c-8.587-8.587-22.571-8.608-31.2,0c-14.837,14.859-38.976,14.837-53.813,0c-8.597-8.587-22.581-8.608-31.189,0
	c-8.864,8.875-21.045,12.331-32.576,10.603v47.829c0,11.776,9.557,21.333,21.333,21.333h308.704
	c11.776,0,21.333-9.557,21.333-21.333v-47.851C430.253,444.021,428.365,444.267,426.466,444.267"/>
<path style="fill:#54C0EB;" d="M113.335,433.141c8.619-8.608,22.603-8.587,31.2,0c14.837,14.837,38.976,14.859,53.813,0
	c8.629-8.608,22.613-8.587,31.211,0c14.827,14.837,38.965,14.837,53.803,0c8.619-8.608,22.613-8.587,31.2,0
	c14.837,14.837,38.987,14.837,53.813,0c8.629-8.608,22.613-8.587,31.2,0c7.424,7.413,17.163,11.125,26.901,11.125
	c1.899,0,3.776-0.245,5.653-0.544v-16.288c-7.339,1.941-15.488,0.149-21.237-5.6c-14.389-14.379-39.456-14.357-53.835,0
	c-8.608,8.587-22.581,8.587-31.189,0c-14.379-14.379-39.435-14.4-53.824,0c-8.608,8.587-22.581,8.587-31.189,0
	c-14.379-14.379-39.445-14.357-53.824,0c-8.597,8.587-22.581,8.587-31.189,0c-14.379-14.379-39.445-14.4-53.824,0
	c-5.749,5.749-13.909,7.541-21.248,5.6v16.309C92.301,445.483,104.471,442.016,113.335,433.141"/>
<g>
</g>
<g>
</g>
<g>
</g>
<g>
</g>
<g>
</g>
<g>
</g>
<g>
</g>
<g>
</g>
<g>
</g>
<g>
</g>
<g>
</g>
<g>
</g>
<g>
</g>
<g>
</g>
<g>
</g>
</svg>
