<?xml version="1.0" encoding="iso-8859-1"?>
<!-- Generator: Adobe Illustrator 19.0.0, SVG Export Plug-In . SVG Version: 6.00 Build 0)  -->
<svg version="1.1" id="Layer_1" xmlns="http://www.w3.org/2000/svg" xmlns:xlink="http://www.w3.org/1999/xlink" x="0px" y="0px"
	 viewBox="0 0 496.8 496.8" style="enable-background:new 0 0 496.8 496.8;" xml:space="preserve">
<path style="fill:#54c1eb;" d="M208,187.733c0,4.8-5.6,12-10.4,12H148c-4.8,0-12-7.2-12-12v-33.6c0-4.8,7.2-10.4,12-10.4h49.6
	c4.8,0,10.4,5.6,10.4,10.4V187.733z"/>
<path style="fill:#31a6d2;" d="M208,187.733c0,4.8-5.6,12-10.4,12H148c-4.8,0-8.8-5.6-8.8-10.4l6.4-28c0-4.8,4-9.6,8.8-9.6l44-7.2
	c4.8,0,9.6,4,9.6,8.8V187.733z"/>
<path style="fill:#3ba9c6;" d="M413.6,246.933c36-15.2,73.6-84,46.4-104c-66.4-48.8-152-49.6-245.6-7.2
	c-61.6,28-146.4,104-181.6,163.2c-13.6,21.6-22.4,44.8-25.6,68.8h16c20.8,32,85.6,24,152,0h312
	C481.6,319.733,480.8,267.733,413.6,246.933z M300.8,214.133c-74.4-24.8-108,56-112.8,27.2c-5.6-28.8,53.6-88.8,130.4-102.4
	c76.8-14.4,120.8,4,126.4,32.8S388.8,242.933,300.8,214.133z"/>
<path style="fill:#5b5d6e;" d="M413.6,246.933c36-15.2,73.6-84,46.4-104c-66.4-48.8-150.4-36-244,6.4c-61.6,28-148,90.4-183.2,149.6
	c-13.6,21.6-22.4,44.8-25.6,68.8h16c20.8,32,85.6,24,152,0h312C481.6,319.733,480.8,267.733,413.6,246.933z M299.2,228.533
	c-74.4-24.8-106.4,41.6-111.2,12.8c-5.6-28.8,53.6-88.8,130.4-102.4c76.8-14.4,120.8,4,126.4,32.8S387.2,257.333,299.2,228.533z"/>
<path style="fill:#2a2b34;" d="M496,386.133c0,1.6-3.2,5.6-7.2,5.6H7.2c-4,0-7.2-4-7.2-5.6v-14.4c0-2.4,3.2-4,7.2-4h482.4
	c4,0,7.2,1.6,7.2,4v14.4H496z"/>
<path style="fill:#3f404b;" d="M489.6,369.333c4,0,6.4,0.8,6.4,2.4v14.4c0,1.6-3.2,5.6-7.2,5.6H8"/>
<path style="fill:#737584;" d="M0,371.733c0-2.4,3.2-4,7.2-4h482.4c4,0,7.2,1.6,7.2,4"/>
<path style="fill:#54c2eb;" d="M460.8,144.533c-65.6-52-151.2-37.6-245.6,4.8c-58.4,26.4-140,83.2-179.2,144
	c38.4,3.2,108.8-0.8,232.8-13.6c84-8.8,152.8-44.8,192.8-86.4C470.4,173.333,473.6,154.133,460.8,144.533z M299.2,228.533
	c-74.4-24.8-106.4,41.6-111.2,12.8c-5.6-28.8,53.6-88.8,130.4-102.4c76.8-14.4,120.8,4,126.4,32.8S387.2,257.333,299.2,228.533z"/>
<path style="fill:#0B3F47;" d="M319.2,211.733c0,7.2,0.8,12-6.4,12h-72c-7.2,0-6.4-4.8-6.4-12l0,0c0-7.2,5.6-12,12.8-12h58.4
	C313.6,199.733,319.2,204.533,319.2,211.733L319.2,211.733z"/>
<path style="fill:#185B6B;" d="M235.2,210.933L235.2,210.933c0-7.2,5.6-11.2,12.8-11.2h58.4c7.2,0,12.8,4.8,12.8,12l0,0"/>
<path style="fill:#54c2eb;" d="M469.6,157.333c0,6.4-5.6,11.2-12,11.2l0,0c-6.4,0-12-4.8-12-11.2v-34.4c0-6.4,5.6-11.2,12-11.2l0,0
	c6.4,0,12,4.8,12,11.2V157.333z"/>
<g>
	<path style="fill:#31a6d2;" d="M321.6,304.533c1.6,1.6,1.6,4,0,4.8l-32,32c-1.6,1.6-4,1.6-4.8,0l0,0c-1.6-1.6-1.6-4,0-4.8l32-32
		C318.4,302.933,320,302.933,321.6,304.533L321.6,304.533z"/>
	<path style="fill:#31a6d2;" d="M356,304.533c1.6,1.6,1.6,4,0,4.8l-32,32c-1.6,1.6-4,1.6-4.8,0l0,0c-1.6-1.6-1.6-4,0-4.8l32-32
		C352,302.933,354.4,302.933,356,304.533L356,304.533z"/>
	<path style="fill:#31a6d2;" d="M389.6,304.533c1.6,1.6,1.6,4,0,4.8l-32,32c-1.6,1.6-4,1.6-4.8,0l0,0c-1.6-1.6-1.6-4,0-4.8l32-32
		C385.6,302.933,388,302.933,389.6,304.533L389.6,304.533z"/>
</g>
<g>
</g>
<g>
</g>
<g>
</g>
<g>
</g>
<g>
</g>
<g>
</g>
<g>
</g>
<g>
</g>
<g>
</g>
<g>
</g>
<g>
</g>
<g>
</g>
<g>
</g>
<g>
</g>
<g>
</g>
</svg>
