<?xml version="1.0" encoding="UTF-8"?>
<svg width="13px" height="14px" viewBox="0 0 13 14" version="1.1" xmlns="http://www.w3.org/2000/svg" xmlns:xlink="http://www.w3.org/1999/xlink">
    <!-- Generator: Sketch 45.1 (43504) - http://www.bohemiancoding.com/sketch -->
    <title></title>
    <desc>Created with Sketch.</desc>
    <defs></defs>
    <g id="Page-1" stroke="none" stroke-width="1" fill="none" fill-rule="evenodd">
        <g id="Desktop-Dashboard-V1" transform="translate(-1109.000000, -358.000000)" fill="#C11083">
            <g id="Videos-entries" transform="translate(269.000000, 304.000000)">
                <g id="Row-1">
                    <path d="M851.4375,61.65625 L852.90625,62.71875 C853.031251,62.8437506 853.052084,62.9895825 852.96875,63.15625 L851.625,65.375 C851.541666,65.5416675 851.416668,65.5937503 851.25,65.53125 L849.5625,64.875 C849.041664,65.2291684 848.666668,65.4479162 848.4375,65.53125 L848.1875,67.25 C848.145833,67.4166675 848.031251,67.5 847.84375,67.5 L845.1875,67.5 C844.999999,67.5 844.885417,67.4166675 844.84375,67.25 L844.59375,65.53125 C844.281248,65.4062494 843.906252,65.1875016 843.46875,64.875 L841.78125,65.53125 C841.614582,65.6145837 841.489584,65.5625009 841.40625,65.375 L840.0625,63.15625 C839.958333,62.9687491 839.979166,62.8229172 840.125,62.71875 L841.53125,61.65625 C841.53125,61.5937497 841.526042,61.4895841 841.515625,61.34375 C841.505208,61.1979159 841.5,61.0833338 841.5,61 C841.5,60.9166662 841.505208,60.8020841 841.515625,60.65625 C841.526042,60.5104159 841.53125,60.4062503 841.53125,60.34375 L840.09375,59.28125 C839.968749,59.1562494 839.947916,59.0104175 840.03125,58.84375 L841.375,56.625 C841.458334,56.4583325 841.583332,56.4062497 841.75,56.46875 L843.4375,57.125 C843.958336,56.7708316 844.333332,56.5520838 844.5625,56.46875 L844.8125,54.75 C844.854167,54.5833325 844.968749,54.5 845.15625,54.5 L847.8125,54.5 C848.000001,54.5 848.114583,54.5833325 848.15625,54.75 L848.375,56.46875 C848.687502,56.5937506 849.062498,56.8124984 849.5,57.125 L851.15625,56.46875 C851.322918,56.3854162 851.458333,56.4374991 851.5625,56.625 L852.90625,58.84375 C853.010417,59.0312509 852.989584,59.1770828 852.84375,59.28125 L851.4375,60.34375 C851.4375,60.4062503 851.442708,60.5104159 851.453125,60.65625 C851.463542,60.8020841 851.46875,60.9166662 851.46875,61 C851.46875,61.3125016 851.458333,61.5312494 851.4375,61.65625 Z M846.46875,63.28125 C847.114587,63.28125 847.666664,63.0625022 848.125,62.625 C848.583336,62.1874978 848.8125,61.6458366 848.8125,61 C848.8125,60.3541634 848.583336,59.8125022 848.125,59.375 C847.666664,58.9374978 847.114587,58.71875 846.46875,58.71875 C845.822913,58.71875 845.276044,58.9374978 844.828125,59.375 C844.380206,59.8125022 844.15625,60.3541634 844.15625,61 C844.15625,61.6458366 844.380206,62.1874978 844.828125,62.625 C845.276044,63.0625022 845.822913,63.28125 846.46875,63.28125 Z" id=""></path>
                </g>
            </g>
        </g>
    </g>
</svg>