<?xml version="1.0" encoding="utf-8"?>
<!-- Generator: Adobe Illustrator 18.1.1, SVG Export Plug-In . SVG Version: 6.00 Build 0)  -->
<svg version="1.1" id="Layer_1" xmlns="http://www.w3.org/2000/svg" xmlns:xlink="http://www.w3.org/1999/xlink" x="0px" y="0px"
	 viewBox="0 0 18 18" enable-background="new 0 0 18 18" xml:space="preserve">
<title>ï </title>
<desc>Created with Sketch.</desc>
<g id="Symbols">
	<g id="vid-1" transform="translate(-20.000000, -233.000000)">
		<g id="content">
			<g transform="translate(11.000000, 130.000000)">
				<path id="_xF3A0_" fill="#D8D8D8" d="M18,112.2c-1,0-1.9-0.3-2.5-1.1c-0.7-0.7-1.1-1.5-1.1-2.5s0.3-1.9,1.1-2.5
					c0.7-0.7,1.5-1.1,2.5-1.1c1,0,1.9,0.3,2.5,1.1c0.7,0.7,1.1,1.5,1.1,2.5s-0.3,1.9-1.1,2.5C19.9,111.7,18.9,112.2,18,112.2z
					 M18,113.9c1.4,0,3,0.3,4.7,1c1.5,0.7,2.5,1.5,2.5,2.5v1.7H10.8v-1.7c0-1.1,0.8-1.9,2.5-2.5C15,114.2,16.5,113.9,18,113.9z"/>
			</g>
		</g>
	</g>
</g>
</svg>
