<?xml version="1.0" encoding="UTF-8"?>
<svg width="25px" height="36px" viewBox="0 0 25 36" version="1.1" xmlns="http://www.w3.org/2000/svg" xmlns:xlink="http://www.w3.org/1999/xlink">
    <!-- Generator: Sketch 45.2 (43514) - http://www.bohemiancoding.com/sketch -->
    <title></title>
    <desc>Created with Sketch.</desc>
    <defs></defs>
    <g id="Page-1" stroke="none" stroke-width="1" fill="none" fill-rule="evenodd">
        <g id="Desktop-Dashboard-V1" transform="translate(-302.000000, -1076.000000)" fill="#78C904">
            <g id="Last-Login-Location" transform="translate(268.000000, 1051.000000)">
                <path d="M46.5,25.1969697 C49.9375172,25.1969697 52.8801961,26.3948744 55.328125,28.7907197 C57.7760539,31.186565 59,34.0771611 59,37.4625947 C59,40.1709416 57.9583437,43.4261174 55.875,47.2282197 C53.7916563,51.030322 51.7083437,54.1552908 49.625,56.6032197 L46.5,60.1969697 C46.1354148,59.8323845 45.6796902,59.3245771 45.1328125,58.6735322 C44.5859348,58.0224873 43.5963613,56.7594791 42.1640625,54.8844697 C40.7317637,53.0094603 39.4687555,51.1865619 38.375,49.4157197 C37.2812445,47.6448775 36.2786504,45.6396892 35.3671875,43.4000947 C34.4557246,41.1605002 34,39.1813533 34,37.4625947 C34,34.0771611 35.2239461,31.186565 37.671875,28.7907197 C40.1198039,26.3948744 43.0624828,25.1969697 46.5,25.1969697 Z M46.5,41.8375947 C47.7500062,41.8375947 48.8046832,41.4079115 49.6640625,40.5485322 C50.5234418,39.6891529 50.953125,38.6605174 50.953125,37.4625947 C50.953125,36.264672 50.5234418,35.2360365 49.6640625,34.3766572 C48.8046832,33.5172779 47.7500062,33.0875947 46.5,33.0875947 C45.2499938,33.0875947 44.1953168,33.5172779 43.3359375,34.3766572 C42.4765582,35.2360365 42.046875,36.264672 42.046875,37.4625947 C42.046875,38.6605174 42.4765582,39.6891529 43.3359375,40.5485322 C44.1953168,41.4079115 45.2499938,41.8375947 46.5,41.8375947 Z" id=""></path>
            </g>
        </g>
    </g>
</svg>