<?xml version="1.0" encoding="UTF-8"?>
<svg width="18px" height="15px" viewBox="0 0 18 15" version="1.1" xmlns="http://www.w3.org/2000/svg" xmlns:xlink="http://www.w3.org/1999/xlink">
    <!-- Generator: Sketch 45.1 (43504) - http://www.bohemiancoding.com/sketch -->
    <title></title>
    <desc>Created with Sketch.</desc>
    <defs></defs>
    <g id="Page-1" stroke="none" stroke-width="1" fill="none" fill-rule="evenodd">
        <g id="Desktop-Dashboard-V1" transform="translate(-1096.000000, -207.000000)" fill="#999999">
            <path d="M1102,207.616 L1114,207.616 L1114,211.6 L1102,211.6 L1102,207.616 Z M1102,221.584 L1102,217.6 L1114,217.6 L1114,221.584 L1102,221.584 Z M1102,216.616 L1102,212.584 L1114,212.584 L1114,216.616 L1102,216.616 Z M1096.984,211.6 L1096.984,207.616 L1101.016,207.616 L1101.016,211.6 L1096.984,211.6 Z M1096.984,221.584 L1096.984,217.6 L1101.016,217.6 L1101.016,221.584 L1096.984,221.584 Z M1096.984,216.616 L1096.984,212.584 L1101.016,212.584 L1101.016,216.616 L1096.984,216.616 Z" id=""></path>
        </g>
    </g>
</svg>