<?xml version="1.0" encoding="UTF-8"?>
<svg width="19px" height="16px" viewBox="0 0 19 16" version="1.1" xmlns="http://www.w3.org/2000/svg" xmlns:xlink="http://www.w3.org/1999/xlink">
    <!-- Generator: Sketch 45.2 (43514) - http://www.bohemiancoding.com/sketch -->
    <title> copy</title>
    <desc>Created with Sketch.</desc>
    <defs></defs>
    <g id="Page-1" stroke="none" stroke-width="1" fill="none" fill-rule="evenodd">
        <g id="Desktop-Dashboard-V1" transform="translate(-1097.000000, -202.000000)" fill="#999999">
            <path d="M1102.47445,202 L1115.57121,202 L1115.57121,206.348124 L1102.47445,206.348124 L1102.47445,202 Z M1102.47445,217.244629 L1102.47445,212.896505 L1115.57121,212.896505 L1115.57121,217.244629 L1102.47445,217.244629 Z M1102.47445,211.82257 L1102.47445,207.422059 L1115.57121,207.422059 L1115.57121,211.82257 L1102.47445,211.82257 Z M1097,206.348124 L1097,202 L1101.40051,202 L1101.40051,206.348124 L1097,206.348124 Z M1097,217.244629 L1097,212.896505 L1101.40051,212.896505 L1101.40051,217.244629 L1097,217.244629 Z M1097,211.82257 L1097,207.422059 L1101.40051,207.422059 L1101.40051,211.82257 L1097,211.82257 Z" id="-copy"></path>
        </g>
    </g>
</svg>