<?xml version="1.0" encoding="utf-8"?>
<!-- Generator: Adobe Illustrator 18.1.1, SVG Export Plug-In . SVG Version: 6.00 Build 0)  -->
<svg version="1.1" id="Layer_1" xmlns="http://www.w3.org/2000/svg" xmlns:xlink="http://www.w3.org/1999/xlink" x="0px" y="0px"
	 viewBox="-117.5 69 25 25" enable-background="new -117.5 69 25 25" xml:space="preserve">
<title></title>
<desc>Created with Sketch.</desc>
<g id="Page-1" opacity="0.6">
	<g id="Desktop-Dashboard-V1" transform="translate(-1053.000000, -38.000000)">
		<g id="Header" transform="translate(0.000000, -26.000000)">
			<g id="Notification" transform="translate(978.000000, 42.000000)">
				<path id="_xE027_" fill="#FFFFFF" d="M-20.8,108.2c0.1,0.2,0.3,0.3,0.3,0.4s0.2,0.2,0.3,0.4s0.2,0.3,0.2,0.4s0.1,0.2,0.2,0.3
					s0.1,0.2,0.1,0.3s0,0.2,0,0.3s0,0.2-0.1,0.3c-0.2,0.5-0.9,0.8-1.9,0.8H-26c0,1.1-0.4,2.1-1.2,2.8s-1.7,1.2-2.8,1.2
					s-2.1-0.4-2.8-1.2s-1.2-1.7-1.2-2.8h-4.3c-1,0-1.7-0.3-1.9-0.8c-0.1-0.2-0.1-0.3-0.1-0.5s0-0.3,0.1-0.5s0.1-0.3,0.2-0.5
					s0.2-0.4,0.3-0.5l0.4-0.6c0,0,0.2-0.3,0.5-0.7s0.5-0.7,0.6-0.8s0.3-0.4,0.5-0.8s0.3-0.6,0.4-0.9s0.1-0.6,0.1-0.9v-4.9
					c0-1.4,0.3-2.7,0.9-3.8s1.5-2.1,2.6-2.8s2.3-1,3.6-1c1,0,1.9,0.2,2.8,0.6s1.7,0.9,2.3,1.6s1.1,1.5,1.5,2.4s0.6,1.9,0.6,3v4.9
					c0,0.2,0,0.5,0.1,0.7s0.2,0.5,0.3,0.8s0.2,0.5,0.4,0.7s0.3,0.4,0.4,0.7s0.3,0.5,0.5,0.6L-20.8,108.2z M-30,113.9
					c0.7,0,1.2-0.2,1.7-0.7s0.7-1.1,0.7-1.7h-4.9c0,0.3,0.1,0.6,0.2,0.9s0.3,0.6,0.5,0.8s0.5,0.4,0.8,0.5S-30.3,113.9-30,113.9z
					 M-21.5,109.9c0,0-0.1-0.1-0.1-0.1s-0.1-0.1-0.1-0.1s-0.1-0.1-0.1-0.1s-0.1-0.1-0.1-0.1l-0.1-0.1c-0.3-0.4-0.6-0.8-0.8-1.1
					s-0.5-0.7-0.8-1.1s-0.5-0.9-0.6-1.4s-0.2-1-0.2-1.5v-4.9c0-0.5,0-1-0.1-1.4s-0.2-0.9-0.4-1.3s-0.4-0.8-0.7-1.1s-0.5-0.7-0.9-0.9
					s-0.7-0.5-1-0.7s-0.8-0.3-1.2-0.5s-0.9-0.2-1.3-0.2c-1.6,0-2.9,0.6-3.9,1.8s-1.6,2.6-1.6,4.3v4.9c0,0.3,0,0.6-0.1,1
					s-0.2,0.7-0.3,0.9s-0.2,0.5-0.5,0.9s-0.4,0.6-0.5,0.8s-0.3,0.4-0.6,0.8s-0.5,0.6-0.5,0.6c-0.3,0.4-0.5,0.6-0.6,0.8H-21.5z"/>
			</g>
		</g>
	</g>
</g>
</svg>
