<?xml version="1.0" encoding="UTF-8"?>
<svg width="16px" height="16px" viewBox="0 0 16 16" version="1.1" xmlns="http://www.w3.org/2000/svg" xmlns:xlink="http://www.w3.org/1999/xlink">
    <!-- Generator: Sketch 44.1 (41455) - http://www.bohemiancoding.com/sketch -->
    <title>Shape</title>
    <desc>Created with Sketch.</desc>
    <defs></defs>
    <g id="Page-1" stroke="none" stroke-width="1" fill="none" fill-rule="evenodd">
        <g id="Desktop-Dashboard-V1" transform="translate(-27.000000, -290.000000)" fill-rule="nonzero" fill="#FFFFFF">
            <g id="Rgiht-Navigations" transform="translate(0.000000, 90.000000)">
                <g id="Challenge-Section" transform="translate(0.000000, 178.000000)">
                    <path d="M31.5446809,38 L31.5446809,37.7020134 C31.5446809,36.5154362 32.7787234,35.5302013 34.4808511,35.3610738 L34.6851064,35.3395973 L34.6851064,33.7530201 L34.551773,33.6966443 C33.7120567,33.3395973 31.6411348,32.3194631 30.5602837,30.5798658 L30.5262411,30.5261745 L30.4695035,30.4966443 C26.7929078,28.6711409 26.9943262,23.9248322 27.0056738,23.7234899 L27.0198582,23.4389262 L29.8851064,23.4389262 L29.8851064,22 L40.1120567,22 L40.1120567,23.4416107 L42.977305,23.4416107 L42.9914894,23.7261745 C43,23.9275168 43.1900709,28.6765101 39.5276596,30.4966443 L39.470922,30.5261745 L39.4368794,30.5798658 C38.3560284,32.3221477 36.2851064,33.3395973 35.4453901,33.6966443 L35.3120567,33.7530201 L35.3120567,35.3395973 L35.5163121,35.3610738 C37.2184397,35.5302013 38.4524823,36.5154362 38.4524823,37.7020134 L38.4524823,38 L31.5446809,38 Z M35,35.9328859 C33.8368794,35.9328859 32.7730496,36.3946309 32.3560284,37.0818792 L32.1602837,37.4040268 L37.8368794,37.4040268 L37.6411348,37.0818792 C37.2269504,36.3946309 36.1631206,35.9328859 35,35.9328859 Z M30.5177305,28.2926174 C30.5177305,31.1409396 33.8794326,32.7624161 34.9092199,33.1919463 L35,33.2295302 L35.0907801,33.1919463 C36.1205674,32.7624161 39.4822695,31.138255 39.4822695,28.2926174 L39.4822695,22.5986577 L30.5177305,22.5986577 L30.5177305,28.2926174 Z M27.6411348,24.2630872 C27.6865248,25.2080537 27.9588652,27.5731544 29.5475177,29.1114094 L30.035461,29.5838926 L29.9333333,28.9315436 C29.9021277,28.7221477 29.8851064,28.5073826 29.8851064,28.295302 L29.8851064,24.0375839 L27.6297872,24.0375839 L27.6411348,24.2630872 Z M40.0666667,28.9315436 L39.964539,29.5838926 L40.4524823,29.1114094 C42.0468085,27.5704698 42.3191489,25.2053691 42.3588652,24.2630872 L42.3702128,24.0402685 L40.1148936,24.0402685 L40.1148936,28.2926174 C40.1148936,28.504698 40.0978723,28.7194631 40.0666667,28.9315436 Z" id="Shape"></path>
                </g>
            </g>
        </g>
    </g>
</svg>