<?xml version="1.0" encoding="UTF-8"?>
<svg width="15px" height="9px" viewBox="0 0 15 9" version="1.1" xmlns="http://www.w3.org/2000/svg" xmlns:xlink="http://www.w3.org/1999/xlink">
    <!-- Generator: Sketch 45.1 (43504) - http://www.bohemiancoding.com/sketch -->
    <title></title>
    <desc>Created with Sketch.</desc>
    <defs></defs>
    <g id="Symbols" stroke="none" stroke-width="1" fill="none" fill-rule="evenodd">
        <g id="vid-1" transform="translate(-139.000000, -133.000000)" fill="#FFFFFF">
            <g id="content">
                <g transform="translate(11.000000, 127.000000)">
                    <path d="M142.960938,10.5 L143,10.5390625 L142.765625,10.7734375 C141.463535,12.0755273 140.44792,12.9739559 139.71875,13.46875 C138.312493,14.4062547 136.906257,14.875 135.5,14.875 C134.48437,14.875 133.514328,14.653648 132.589844,14.2109375 C131.66536,13.768227 130.955732,13.325523 130.460938,12.8828125 C129.966143,12.440102 129.236984,11.736984 128.273438,10.7734375 L128,10.5 L128.039062,10.4609375 C129.471361,9.00259688 130.695307,7.94791992 131.710938,7.296875 C132.960944,6.51562109 134.223952,6.125 135.5,6.125 C137.947929,6.125 140.434883,7.58331875 142.960938,10.5 Z M135.5,13.625 C136.359379,13.625 137.095049,13.3190135 137.707031,12.7070312 C138.319013,12.095049 138.625,11.3593793 138.625,10.5 C138.625,9.6406207 138.319013,8.90495098 137.707031,8.29296875 C137.095049,7.68098652 136.359379,7.375 135.5,7.375 C134.640621,7.375 133.904951,7.68098652 133.292969,8.29296875 C132.680987,8.90495098 132.375,9.6406207 132.375,10.5 C132.375,11.3593793 132.680987,12.095049 133.292969,12.7070312 C133.904951,13.3190135 134.640621,13.625 135.5,13.625 Z M135.265625,9.3671875 C135.265625,9.73177266 135.402342,10.0507799 135.675781,10.3242188 C135.94922,10.5976576 136.268227,10.734375 136.632812,10.734375 C136.919272,10.734375 137.166666,10.6562508 137.375,10.5 C137.375,11.0208359 137.19271,11.4635398 136.828125,11.828125 C136.46354,12.1927102 136.020836,12.375 135.5,12.375 C134.979164,12.375 134.53646,12.1927102 134.171875,11.828125 C133.80729,11.4635398 133.625,11.0208359 133.625,10.5 C133.625,9.97916406 133.80729,9.53646016 134.171875,9.171875 C134.53646,8.80728984 134.979164,8.625 135.5,8.625 C135.343749,8.83333437 135.265625,9.08072773 135.265625,9.3671875 Z" id=""></path>
                </g>
            </g>
        </g>
    </g>
</svg>