<?xml version="1.0" encoding="utf-8"?>
<!-- Generator: Adobe Illustrator 18.1.1, SVG Export Plug-In . SVG Version: 6.00 Build 0)  -->
<svg version="1.1" id="Layer_1" xmlns="http://www.w3.org/2000/svg" xmlns:xlink="http://www.w3.org/1999/xlink" x="0px" y="0px"
	 viewBox="-2 4 12 12" enable-background="new -2 4 12 12" xml:space="preserve">
<title>ion-android-calendar - Ionicons</title>
<desc>Created with Sketch.</desc>
<g id="Symbols">
	<g id="vid-1" transform="translate(-19.000000, -255.000000)">
		<g id="content">
			<g transform="translate(11.000000, 130.000000)">
				<path id="ion-android-calendar---Ionicons" fill="#D8D8D8" d="M14.9,135.4v2.5h-2.5v-2.5H14.9z M14.1,130h1.2v0.8h0.6
					c0.3,0,0.5,0.1,0.7,0.3c0.2,0.2,0.3,0.4,0.3,0.7v7c0,0.3-0.1,0.5-0.3,0.7s-0.4,0.3-0.7,0.3H8.1c-0.3,0-0.5-0.1-0.7-0.3
					S7,139.2,7,138.9v-7c0-0.3,0.1-0.5,0.3-0.7c0.2-0.2,0.4-0.3,0.7-0.3h0.6V130h1.2v0.8h4.1V130z M15.9,138.9v-5.5H8.1v5.5H15.9z"
					/>
			</g>
		</g>
	</g>
</g>
</svg>
