<?xml version="1.0" encoding="UTF-8"?>
<svg width="14px" height="14px" viewBox="0 0 14 14" version="1.1" xmlns="http://www.w3.org/2000/svg" xmlns:xlink="http://www.w3.org/1999/xlink">
    <!-- Generator: Sketch 45.1 (43504) - http://www.bohemiancoding.com/sketch -->
    <title>Oval 4</title>
    <desc>Created with Sketch.</desc>
    <defs></defs>
    <g id="Page-1" stroke="none" stroke-width="1" fill="none" fill-rule="evenodd">
        <g id="Desktop-Dashboard-V1" transform="translate(-1102.000000, -317.000000)" fill-rule="nonzero" fill="#C11083">
            <g id="Videos-entries" transform="translate(269.000000, 284.000000)">
                <g id="Row-1">
                    <g id="Ban-icon" transform="translate(834.000000, 34.000000)">
                        <path d="M6,13 C2.13400675,13 -1,9.86599325 -1,6 C-1,2.13400675 2.13400675,-1 6,-1 C9.86599325,-1 13,2.13400675 13,6 C13,9.86599325 9.86599325,13 6,13 Z M6,11 C8.76142375,11 11,8.76142375 11,6 C11,3.23857625 8.76142375,1 6,1 C3.23857625,1 1,3.23857625 1,6 C1,8.76142375 3.23857625,11 6,11 Z" id="Oval-4"></path>
                    </g>
                </g>
            </g>
        </g>
    </g>
</svg>