<?xml version="1.0" encoding="utf-8"?>
<!-- Generator: Adobe Illustrator 18.1.1, SVG Export Plug-In . SVG Version: 6.00 Build 0)  -->
<svg version="1.1" id="Layer_1" xmlns="http://www.w3.org/2000/svg" xmlns:xlink="http://www.w3.org/1999/xlink" x="0px" y="0px"
	 viewBox="-119 74 16 16" enable-background="new -119 74 16 16" xml:space="preserve">
<title>Phone - simple-line-icons</title>
<desc>Created with Sketch.</desc>
<g id="Page-1">
	<g id="Desktop-Dashboard-V1" transform="translate(-27.000000, -587.000000)">
		<g id="Rgiht-Navigations" transform="translate(0.000000, 90.000000)">
			<g id="Contacts" transform="translate(0.000000, 473.000000)">
				<path id="Phone---simple-line-icons" fill="#FFFFFF" d="M-87.9,98.6c0.6,0.8,1.3,1.9,2.1,3.1c0.2,0.3,0.2,0.7-0.1,1.2
					c-0.1,0.2-0.3,0.6-0.8,1.4c0.1,0.1,0.2,0.3,0.3,0.4s0.2,0.3,0.4,0.4s0.3,0.3,0.4,0.5s0.3,0.3,0.5,0.5s0.3,0.3,0.5,0.5
					c0.9,0.9,1.7,1.6,2.3,2c0.7-0.4,1.1-0.7,1.4-0.8c0.3-0.1,0.5-0.2,0.8-0.2c0.2,0,0.3,0,0.5,0.1c0.9,0.6,2,1.3,3.2,2.1
					c0.2,0.2,0.3,0.4,0.4,0.7c0,0.3-0.1,0.6-0.3,0.9c-0.1,0.1-0.2,0.3-0.5,0.6c-0.2,0.3-0.5,0.6-1,1s-0.8,0.6-1.1,0.6h0
					c-1.1,0-2.3-0.5-3.6-1.3s-2.7-2-4.3-3.5c-3.1-3.1-4.7-5.8-4.8-7.9c0-0.3,0.2-0.7,0.6-1.1c0.4-0.4,0.7-0.8,1-1
					c0.3-0.2,0.5-0.4,0.7-0.5c0.2-0.2,0.5-0.2,0.8-0.2C-88.4,98.3-88.1,98.4-87.9,98.6z M-88.9,99.3c-0.4,0.3-0.8,0.6-1.2,1
					c-0.4,0.4-0.6,0.7-0.7,0.8c0.1,1.9,1.6,4.3,4.5,7.2c2.9,2.9,5.3,4.4,7.2,4.5c0.2-0.1,0.4-0.3,0.8-0.7s0.7-0.8,1-1.2
					c0,0,0.1-0.1,0.1-0.1c0,0,0-0.1,0-0.1c-1.2-0.8-2.2-1.5-3-2c-0.1,0-0.2,0-0.3,0.1c0,0-0.2,0.1-0.5,0.3c-0.3,0.2-0.6,0.3-0.9,0.5
					l-0.5,0.3l-0.5-0.3c-0.7-0.4-1.5-1.2-2.4-2.1c-0.9-0.9-1.6-1.8-2.1-2.4l-0.4-0.5l0.3-0.5c0.4-0.7,0.6-1.2,0.8-1.4
					c0.1-0.1,0.1-0.2,0.1-0.3c-0.4-0.6-0.7-1.1-1-1.6s-0.7-1-1-1.4h0C-88.8,99.2-88.9,99.2-88.9,99.3z"/>
			</g>
		</g>
	</g>
</g>
</svg>
