<?xml version="1.0" encoding="utf-8"?>
<!-- Generator: Adobe Illustrator 18.1.1, SVG Export Plug-In . SVG Version: 6.00 Build 0)  -->
<svg version="1.1" id="Layer_1" xmlns="http://www.w3.org/2000/svg" xmlns:xlink="http://www.w3.org/1999/xlink" x="0px" y="0px"
	 viewBox="-118.5 74 16 16" enable-background="new -118.5 74 16 16" xml:space="preserve">
<title>Envelope - simple-line-icons</title>
<desc>Created with Sketch.</desc>
<g id="Page-1">
	<g id="Desktop-Dashboard-V1" transform="translate(-27.000000, -470.000000)">
		<g id="Rgiht-Navigations" transform="translate(0.000000, 90.000000)">
			<g id="Email" transform="translate(0.000000, 355.000000)">
				<g enable-background="new    ">
					<path fill="#FFFFFF" d="M-75.8,102.8L-75.8,102.8c0,0.1,0,0.1,0,0.1v7.7c0,0.4-0.1,0.8-0.3,1.2c-0.2,0.3-0.5,0.5-0.9,0.5h-12.6
						c-0.4,0-0.8-0.2-1.2-0.5c-0.4-0.4-0.5-0.7-0.5-1.1v-7.7c0,0,0-0.1,0-0.1c0-0.1,0-0.3,0.1-0.4c0,0,0,0,0.1-0.1
						c0.3-0.4,0.8-0.6,1.5-0.6H-77c0.6,0,1,0.3,1.2,0.8C-75.8,102.6-75.8,102.7-75.8,102.8z M-76.7,110.6v-6.9l-6.5,5.2
						c-0.1,0.1-0.2,0.1-0.3,0.1s-0.2,0-0.3-0.1l-6.5-5.2v6.9c0,0.1,0.1,0.3,0.3,0.5c0.2,0.2,0.3,0.3,0.5,0.3H-77
						C-76.8,111.4-76.7,111.1-76.7,110.6z M-90,102.7l6.5,5.2l6.5-5.2h-12.6C-89.8,102.6-89.9,102.7-90,102.7z"/>
				</g>
			</g>
		</g>
	</g>
</g>
</svg>
