<?xml version="1.0" encoding="UTF-8"?>
<svg width="13px" height="14px" viewBox="0 0 13 14" version="1.1" xmlns="http://www.w3.org/2000/svg" xmlns:xlink="http://www.w3.org/1999/xlink">
    <!-- Generator: Sketch 45.1 (43504) - http://www.bohemiancoding.com/sketch -->
    <title>ion-android-settings - Ionicons</title>
    <desc>Created with Sketch.</desc>
    <defs></defs>
    <g id="Symbols" stroke="none" stroke-width="1" fill="none" fill-rule="evenodd">
        <g id="vid-1" transform="translate(-34.000000, -130.000000)" fill="#FFFFFF">
            <g id="content">
                <g transform="translate(11.000000, 127.000000)">
                    <path d="M34.4375,10.65625 L35.90625,11.71875 C36.0312506,11.8437506 36.0520838,11.9895825 35.96875,12.15625 L34.625,14.375 C34.5416662,14.5416675 34.4166675,14.5937503 34.25,14.53125 L32.5625,13.875 C32.0416641,14.2291684 31.6666678,14.4479162 31.4375,14.53125 L31.1875,16.25 C31.1458331,16.4166675 31.0312509,16.5 30.84375,16.5 L28.1875,16.5 C27.9999991,16.5 27.8854169,16.4166675 27.84375,16.25 L27.59375,14.53125 C27.2812484,14.4062494 26.9062522,14.1875016 26.46875,13.875 L24.78125,14.53125 C24.6145825,14.6145837 24.4895838,14.5625009 24.40625,14.375 L23.0625,12.15625 C22.9583328,11.9687491 22.9791659,11.8229172 23.125,11.71875 L24.53125,10.65625 C24.53125,10.5937497 24.5260417,10.4895841 24.515625,10.34375 C24.5052083,10.1979159 24.5,10.0833338 24.5,10 C24.5,9.91666625 24.5052083,9.80208406 24.515625,9.65625 C24.5260417,9.51041594 24.53125,9.40625031 24.53125,9.34375 L23.09375,8.28125 C22.9687494,8.15624937 22.9479162,8.0104175 23.03125,7.84375 L24.375,5.625 C24.4583338,5.4583325 24.5833325,5.40624969 24.75,5.46875 L26.4375,6.125 C26.9583359,5.77083156 27.3333322,5.55208375 27.5625,5.46875 L27.8125,3.75 C27.8541669,3.5833325 27.9687491,3.5 28.15625,3.5 L30.8125,3.5 C31.0000009,3.5 31.1145831,3.5833325 31.15625,3.75 L31.375,5.46875 C31.6875016,5.59375062 32.0624978,5.81249844 32.5,6.125 L34.15625,5.46875 C34.3229175,5.38541625 34.4583328,5.43749906 34.5625,5.625 L35.90625,7.84375 C36.0104172,8.03125094 35.9895841,8.17708281 35.84375,8.28125 L34.4375,9.34375 C34.4375,9.40625031 34.4427083,9.51041594 34.453125,9.65625 C34.4635417,9.80208406 34.46875,9.91666625 34.46875,10 C34.46875,10.3125016 34.4583334,10.5312494 34.4375,10.65625 Z M29.46875,12.28125 C30.1145866,12.28125 30.6666644,12.0625022 31.125,11.625 C31.5833356,11.1874978 31.8125,10.6458366 31.8125,10 C31.8125,9.35416344 31.5833356,8.81250219 31.125,8.375 C30.6666644,7.93749781 30.1145866,7.71875 29.46875,7.71875 C28.8229134,7.71875 28.2760439,7.93749781 27.828125,8.375 C27.3802061,8.81250219 27.15625,9.35416344 27.15625,10 C27.15625,10.6458366 27.3802061,11.1874978 27.828125,11.625 C28.2760439,12.0625022 28.8229134,12.28125 29.46875,12.28125 Z" id="ion-android-settings---Ionicons"></path>
                </g>
            </g>
        </g>
    </g>
</svg>