<?xml version="1.0" encoding="UTF-8"?>
<svg width="21px" height="16px" viewBox="0 0 21 16" version="1.1" xmlns="http://www.w3.org/2000/svg" xmlns:xlink="http://www.w3.org/1999/xlink">
    <!-- Generator: Sketch 45.1 (43504) - http://www.bohemiancoding.com/sketch -->
    <title></title>
    <desc>Created with Sketch.</desc>
    <defs></defs>
    <g id="Page-1" stroke="none" stroke-width="1" fill="none" fill-rule="evenodd">
        <g id="Desktop-Dashboard-V1" transform="translate(-1129.000000, -202.000000)" fill="#999999">
            <path d="M1143.648,202.052 L1149.5,202.052 L1149.5,209.052 L1143.648,209.052 L1143.648,202.052 Z M1136.648,209.052 L1136.648,202.052 L1142.5,202.052 L1142.5,209.052 L1136.648,209.052 Z M1143.648,217.2 L1143.648,210.2 L1149.5,210.2 L1149.5,217.2 L1143.648,217.2 Z M1136.648,217.2 L1136.648,210.2 L1142.5,210.2 L1142.5,217.2 L1136.648,217.2 Z M1129.648,217.2 L1129.648,210.2 L1135.5,210.2 L1135.5,217.2 L1129.648,217.2 Z M1129.648,209.052 L1129.648,202.052 L1135.5,202.052 L1135.5,209.052 L1129.648,209.052 Z" id=""></path>
        </g>
    </g>
</svg>