<?xml version="1.0" encoding="UTF-8"?>
<svg width="18px" height="15px" viewBox="0 0 18 15" version="1.1" xmlns="http://www.w3.org/2000/svg" xmlns:xlink="http://www.w3.org/1999/xlink">
    <!-- Generator: Sketch 45.1 (43504) - http://www.bohemiancoding.com/sketch -->
    <title></title>
    <desc>Created with Sketch.</desc>
    <defs></defs>
    <g id="Page-1" stroke="none" stroke-width="1" fill="none" fill-rule="evenodd">
        <g id="Desktop-Dashboard-V1" transform="translate(-1096.000000, -202.000000)" fill="#78C904">
            <path d="M1102,202.616 L1114,202.616 L1114,206.6 L1102,206.6 L1102,202.616 Z M1102,216.584 L1102,212.6 L1114,212.6 L1114,216.584 L1102,216.584 Z M1102,211.616 L1102,207.584 L1114,207.584 L1114,211.616 L1102,211.616 Z M1096.984,206.6 L1096.984,202.616 L1101.016,202.616 L1101.016,206.6 L1096.984,206.6 Z M1096.984,216.584 L1096.984,212.6 L1101.016,212.6 L1101.016,216.584 L1096.984,216.584 Z M1096.984,211.616 L1096.984,207.584 L1101.016,207.584 L1101.016,211.616 L1096.984,211.616 Z" id=""></path>
        </g>
    </g>
</svg>