<?xml version="1.0" encoding="UTF-8"?>
<svg width="23px" height="33px" viewBox="0 0 23 33" version="1.1" xmlns="http://www.w3.org/2000/svg" xmlns:xlink="http://www.w3.org/1999/xlink">
    <!-- Generator: Sketch 45.2 (43514) - http://www.bohemiancoding.com/sketch -->
    <title></title>
    <desc>Created with Sketch.</desc>
    <defs></defs>
    <g id="Page-1" stroke="none" stroke-width="1" fill="none" fill-rule="evenodd">
        <g id="Desktop-Dashboard-V1" transform="translate(-555.000000, -1302.000000)" fill="#C11083">
            <path d="M566.25,1302.75 C569.343765,1302.75 571.992176,1303.82811 574.195312,1305.98438 C576.398449,1308.14064 577.5,1310.74217 577.5,1313.78906 C577.5,1316.22657 576.562509,1319.15623 574.6875,1322.57812 C572.812491,1326.00002 570.937509,1328.81249 569.0625,1331.01562 L566.25,1334.25 C565.921873,1333.92187 565.511721,1333.46485 565.019531,1332.87891 C564.527341,1332.29297 563.636725,1331.15626 562.347656,1329.46875 C561.058587,1327.78124 559.92188,1326.14063 558.9375,1324.54688 C557.95312,1322.95312 557.050785,1321.14845 556.230469,1319.13281 C555.410152,1317.11718 555,1315.33595 555,1313.78906 C555,1310.74217 556.101551,1308.14064 558.304688,1305.98438 C560.507824,1303.82811 563.156235,1302.75 566.25,1302.75 Z M566.25,1317.72656 C567.375006,1317.72656 568.324215,1317.33985 569.097656,1316.56641 C569.871098,1315.79296 570.257812,1314.86719 570.257812,1313.78906 C570.257812,1312.71093 569.871098,1311.78516 569.097656,1311.01172 C568.324215,1310.23828 567.375006,1309.85156 566.25,1309.85156 C565.124994,1309.85156 564.175785,1310.23828 563.402344,1311.01172 C562.628902,1311.78516 562.242188,1312.71093 562.242188,1313.78906 C562.242188,1314.86719 562.628902,1315.79296 563.402344,1316.56641 C564.175785,1317.33985 565.124994,1317.72656 566.25,1317.72656 Z" id=""></path>
        </g>
    </g>
</svg>