<?xml version="1.0" encoding="utf-8"?>
<!-- Generator: Adobe Illustrator 18.1.1, SVG Export Plug-In . SVG Version: 6.00 Build 0)  -->
<svg version="1.1" id="Layer_1" xmlns="http://www.w3.org/2000/svg" xmlns:xlink="http://www.w3.org/1999/xlink" x="0px" y="0px"
	 viewBox="-113 65.5 32 32" enable-background="new -113 65.5 32 32" xml:space="preserve">
<title>ïˆ</title>
<desc>Created with Sketch.</desc>
<g id="Page-1">
	<g id="Desktop-Dashboard-V1" transform="translate(-1104.000000, -282.000000)">
		<g id="Downloads" transform="translate(873.000000, 190.000000)">
			<g id="Download-Icon" transform="translate(213.000000, 73.000000)">
				<path id="_xF408_" fill="#78C904" d="M-79.5,112.4v-7.1h1.1v7.1l3.7-3.6l0.8,0.8l-5,4.8l-4.9-4.8l0.7-0.8L-79.5,112.4z
					 M-69.5,94.4c1.5,0,2.8,0.5,3.8,1.6s1.6,2.3,1.6,3.9s-0.5,2.8-1.6,3.9s-2.3,1.6-3.9,1.6h-8.9v-9h-1.1v9h-8.4
					c-1.6,0-3-0.6-4.2-1.7s-1.8-2.5-1.8-4.2c0-1.3,0.4-2.4,1.1-3.4s1.7-1.7,2.9-2.1c0.2-0.9,0.6-1.7,1.4-2.4s1.6-1,2.6-1
					c0.6,0,1.2,0.1,1.7,0.4c0.6-1.3,1.6-2.4,2.8-3.2s2.6-1.2,4.2-1.2c2.1,0,4,0.7,5.5,2.2s2.3,3.3,2.3,5.4v0.1L-69.5,94.4z"/>
			</g>
		</g>
	</g>
</g>
</svg>
