<?xml version="1.0" encoding="UTF-8"?>
<svg width="34px" height="34px" viewBox="0 0 34 34" version="1.1" xmlns="http://www.w3.org/2000/svg" xmlns:xlink="http://www.w3.org/1999/xlink">
    <!-- Generator: Sketch 45.2 (43514) - http://www.bohemiancoding.com/sketch -->
    <title></title>
    <desc>Created with Sketch.</desc>
    <defs></defs>
    <g id="Page-1" stroke="none" stroke-width="1" fill="none" fill-rule="evenodd">
        <g id="Desktop-Dashboard-V1" transform="translate(-302.000000, -1545.000000)" fill="#78C904">
            <g id="Watch-time-Graph" transform="translate(268.000000, 1519.000000)">
                <path d="M50.640625,26.359375 C55.2239813,26.359375 59.1432129,27.9869629 62.3984375,31.2421875 C65.6536621,34.4974121 67.28125,38.4166437 67.28125,43 C67.28125,47.5833563 65.6536621,51.5025879 62.3984375,54.7578125 C59.1432129,58.0130371 55.2239813,59.640625 50.640625,59.640625 C46.0572687,59.640625 42.1380371,58.0130371 38.8828125,54.7578125 C35.6275879,51.5025879 34,47.5833563 34,43 C34,38.4166437 35.6275879,34.4974121 38.8828125,31.2421875 C42.1380371,27.9869629 46.0572687,26.359375 50.640625,26.359375 Z M50.640625,56.28125 C54.3385602,56.28125 57.4765496,54.9791797 60.0546875,52.375 C62.6328254,49.7708203 63.921875,46.6458516 63.921875,43 C63.921875,39.3541484 62.6328254,36.2291797 60.0546875,33.625 C57.4765496,31.0208203 54.3385602,29.71875 50.640625,29.71875 C46.9426898,29.71875 43.8047004,31.0208203 41.2265625,33.625 C38.6484246,36.2291797 37.359375,39.3541484 37.359375,43 C37.359375,46.6458516 38.6484246,49.7708203 41.2265625,52.375 C43.8047004,54.9791797 46.9426898,56.28125 50.640625,56.28125 Z M51.5,34.71875 L51.5,43.390625 L59,47.84375 L57.75,49.875 L49,44.640625 L49,34.71875 L51.5,34.71875 Z" id=""></path>
            </g>
        </g>
    </g>
</svg>