<?xml version="1.0" encoding="utf-8"?>
<!-- Generator: Adobe Illustrator 18.1.1, SVG Export Plug-In . SVG Version: 6.00 Build 0)  -->
<svg version="1.1" id="Layer_1" xmlns="http://www.w3.org/2000/svg" xmlns:xlink="http://www.w3.org/1999/xlink" x="0px" y="0px"
	 viewBox="-115.5 69 25 25" enable-background="new -115.5 69 25 25" xml:space="preserve">
<title>Menu - simple-line-icons</title>
<desc>Created with Sketch.</desc>
<g id="Page-1" opacity="0.6">
	<g id="Desktop-Dashboard-V1" transform="translate(-240.000000, -36.000000)">
		<g id="Header" transform="translate(0.000000, -26.000000)">
			<path id="Menu---simple-line-icons" fill="#D8D8D8" d="M125.6,136.1c-0.1-0.1-0.1-0.1-0.2-0.2s-0.1-0.2-0.1-0.2s0-0.2,0-0.3
				c0-0.3,0.1-0.5,0.3-0.7s0.4-0.3,0.7-0.3h21.4c0.3,0,0.5,0.1,0.7,0.3s0.3,0.4,0.3,0.7s-0.1,0.5-0.3,0.7s-0.4,0.3-0.7,0.3h-21.4
				C126,136.4,125.8,136.3,125.6,136.1z M147.7,142.5c0.3,0,0.5,0.1,0.7,0.3s0.3,0.4,0.3,0.7s-0.1,0.5-0.3,0.7s-0.4,0.3-0.7,0.3
				h-21.4c-0.3,0-0.5-0.1-0.7-0.3c0,0-0.1-0.1-0.1-0.1s-0.1-0.1-0.1-0.1s0-0.1-0.1-0.1s0-0.1,0-0.2s0-0.1,0-0.2
				c0-0.3,0.1-0.5,0.3-0.7s0.4-0.3,0.7-0.3H147.7z M148.4,150.9c0.2,0.2,0.3,0.4,0.3,0.7s-0.1,0.5-0.3,0.7s-0.4,0.3-0.7,0.3h-21.4
				c-0.3,0-0.5-0.1-0.7-0.3c0,0-0.1-0.1-0.1-0.1l-0.1-0.1c0,0,0-0.1-0.1-0.1s0-0.1,0-0.1s0-0.1,0-0.1v-0.2c0-0.3,0.1-0.5,0.3-0.7
				s0.4-0.3,0.7-0.3h21.4C148,150.6,148.2,150.7,148.4,150.9z"/>
		</g>
	</g>
</g>
</svg>
