<?xml version="1.0" encoding="utf-8"?>
<!-- Generator: Adobe Illustrator 18.1.1, SVG Export Plug-In . SVG Version: 6.00 Build 0)  -->
<svg version="1.1" id="Layer_1" xmlns="http://www.w3.org/2000/svg" xmlns:xlink="http://www.w3.org/1999/xlink" x="0px" y="0px"
	 viewBox="-122.5 74 16 16" enable-background="new -122.5 74 16 16" xml:space="preserve">
<title>android - FontAwesome</title>
<desc>Created with Sketch.</desc>
<g id="Page-1">
	<g id="Desktop-Dashboard-V1" transform="translate(-893.000000, -314.000000)">
		<g id="Downloads" transform="translate(873.000000, 190.000000)">
			<path id="android---FontAwesome" fill="#78C904" d="M-96.4,201.7c0.2,0,0.3-0.2,0.3-0.3c0-0.2-0.2-0.3-0.3-0.3
				c-0.2,0-0.3,0.2-0.3,0.3C-96.7,201.6-96.6,201.7-96.4,201.7z M-92.6,201.7c0.2,0,0.3-0.2,0.3-0.3c0-0.2-0.2-0.3-0.3-0.3
				c-0.2,0-0.3,0.2-0.3,0.3C-93,201.6-92.8,201.7-92.6,201.7z M-99.9,203.4c-0.5,0-0.9,0.4-0.9,0.9v3.8c0,0.5,0.4,0.9,0.9,0.9
				c0.5,0,0.9-0.4,0.9-0.9v-3.8C-99,203.8-99.4,203.4-99.9,203.4z M-90.4,203.6h-8.2v5.9c0,0.5,0.4,1,1,1h0.7l0,2
				c0,0.5,0.4,0.9,0.9,0.9c0.5,0,0.9-0.4,0.9-0.9v-2h1.2v2c0,0.5,0.4,0.9,0.9,0.9c0.5,0,0.9-0.4,0.9-0.9v-2h0.7c0.5,0,1-0.4,1-1
				V203.6z M-92.5,199.9c1.3,0.6,2.1,1.9,2.1,3.3h-8.3c0-1.4,0.8-2.7,2.1-3.3l-0.6-1.2c0-0.1,0-0.1,0-0.2c0.1,0,0.1,0,0.2,0.1
				l0.6,1.2c0.5-0.2,1.2-0.4,1.8-0.4c0.6,0,1.3,0.1,1.8,0.4l0.6-1.2c0-0.1,0.1-0.1,0.2-0.1c0.1,0,0.1,0.1,0,0.2L-92.5,199.9z
				 M-88.2,204.3c0-0.5-0.4-0.9-0.9-0.9c-0.5,0-0.9,0.4-0.9,0.9v3.8c0,0.5,0.4,0.9,0.9,0.9c0.5,0,0.9-0.4,0.9-0.9V204.3z"/>
		</g>
	</g>
</g>
</svg>
