<?xml version="1.0" encoding="utf-8"?>
<!-- Generator: Adobe Illustrator 18.1.1, SVG Export Plug-In . SVG Version: 6.00 Build 0)  -->
<svg version="1.1" id="Layer_1" xmlns="http://www.w3.org/2000/svg" xmlns:xlink="http://www.w3.org/1999/xlink" x="0px" y="0px"
	 viewBox="-119 74 16 16" enable-background="new -119 74 16 16" xml:space="preserve">
<title>Chart - simple-line-icons</title>
<desc>Created with Sketch.</desc>
<g id="Page-1">
	<g id="Desktop-Dashboard-V1" transform="translate(-27.000000, -409.000000)">
		<g id="Rgiht-Navigations" transform="translate(0.000000, 90.000000)">
			<g id="Reports" transform="translate(0.000000, 296.000000)">
				<g enable-background="new    ">
					<path fill="#FFFFFF" d="M-87.4,102.1c0.1,0.1,0.1,0.2,0.1,0.4v10c0,0.1,0,0.3-0.1,0.4s-0.2,0.1-0.4,0.1h-3.5
						c-0.1,0-0.3,0-0.4-0.1s-0.1-0.2-0.1-0.4v-10c0-0.1,0-0.3,0.1-0.4s0.2-0.1,0.4-0.1h3.5C-87.6,102-87.5,102-87.4,102.1z
						 M-88.3,103h-2.5v9h2.5V103z M-81.9,105.1c0.1,0.1,0.1,0.2,0.1,0.4v7c0,0.1,0,0.3-0.1,0.4s-0.2,0.1-0.4,0.1h-3.5
						c-0.1,0-0.3,0-0.4-0.1s-0.1-0.2-0.1-0.4v-7c0-0.1,0-0.3,0.1-0.4s0.2-0.1,0.4-0.1h3.5C-82.1,105-82,105-81.9,105.1z M-82.8,106
						h-2.5v6h2.5V106z M-76.4,97.1c0.1,0.1,0.1,0.2,0.1,0.4v15c0,0.1,0,0.3-0.1,0.4s-0.2,0.1-0.4,0.1h-3.5c-0.1,0-0.2,0-0.3-0.1
						c-0.1-0.1-0.2-0.2-0.2-0.4v-15c0-0.1,0.1-0.3,0.2-0.4c0.1-0.1,0.2-0.1,0.3-0.1h3.5C-76.6,97-76.5,97-76.4,97.1z M-77.3,98h-2.5
						v14h2.5V98z"/>
				</g>
			</g>
		</g>
	</g>
</g>
</svg>
