<?xml version="1.0" encoding="UTF-8"?>
<svg width="12px" height="12px" viewBox="0 0 12 12" version="1.1" xmlns="http://www.w3.org/2000/svg" xmlns:xlink="http://www.w3.org/1999/xlink">
    <!-- Generator: Sketch 45.1 (43504) - http://www.bohemiancoding.com/sketch -->
    <title></title>
    <desc>Created with Sketch.</desc>
    <defs></defs>
    <g id="Page-1" stroke="none" stroke-width="1" fill="none" fill-rule="evenodd">
        <g id="Desktop-Dashboard-V1" transform="translate(-868.000000, -204.000000)" fill="#E4E8E9">
            <g id="Search" transform="translate(747.000000, 195.000000)">
                <path d="M129.75,16.3125 L129.625,16.53125 L133,19.9375 L131.9375,21 L128.5625,17.59375 L128.34375,17.75 C127.510413,18.2708359 126.645838,18.53125 125.75,18.53125 C124.437493,18.53125 123.317713,18.0625047 122.390625,17.125 C121.463537,16.1874953 121,15.0625066 121,13.75 C121,12.4374934 121.463537,11.317713 122.390625,10.390625 C123.317713,9.46353703 124.437493,9 125.75,9 C127.062507,9 128.182287,9.46353703 129.109375,10.390625 C130.036463,11.317713 130.5,12.4374934 130.5,13.75 C130.5,14.6666713 130.250002,15.5208294 129.75,16.3125 Z M128.40625,11.09375 C127.67708,10.3645797 126.791672,10 125.75,10 C124.708328,10 123.82292,10.3645797 123.09375,11.09375 C122.36458,11.8229203 122,12.7083281 122,13.75 C122,14.7916719 122.36458,15.6770797 123.09375,16.40625 C123.82292,17.1354203 124.708328,17.5 125.75,17.5 C126.791672,17.5 127.67708,17.1354203 128.40625,16.40625 C129.156254,15.6562463 129.53125,14.7708384 129.53125,13.75 C129.53125,12.7291616 129.156254,11.8437537 128.40625,11.09375 Z" id=""></path>
            </g>
        </g>
    </g>
</svg>