<?xml version="1.0" encoding="utf-8"?>
<!-- Generator: Adobe Illustrator 18.1.1, SVG Export Plug-In . SVG Version: 6.00 Build 0)  -->
<svg version="1.1" id="Layer_1" xmlns="http://www.w3.org/2000/svg" xmlns:xlink="http://www.w3.org/1999/xlink" x="0px" y="0px"
	 viewBox="119.5 73.5 16 16" enable-background="new 119.5 73.5 16 16" xml:space="preserve">
<title>Calendar - simple-line-icons</title>
<desc>Created with Sketch.</desc>
<g id="Page-1">
	<g id="Desktop-Dashboard-V1" transform="translate(-27.000000, -526.000000)">
		<g id="Rgiht-Navigations" transform="translate(0.000000, 90.000000)">
			<g id="Calander" transform="translate(0.000000, 414.000000)">
				<g enable-background="new    ">
					<path fill="#FFFFFF" d="M162.2,97.3c0.2,0.2,0.3,0.4,0.3,0.7v12.5c0,0.3-0.1,0.5-0.3,0.7s-0.4,0.3-0.7,0.3h-14
						c-0.3,0-0.5-0.1-0.7-0.3c-0.2-0.2-0.3-0.4-0.3-0.7V98c0-0.3,0.1-0.5,0.3-0.7s0.4-0.3,0.7-0.3h4v-1c0-0.1,0-0.3,0.1-0.4
						c0.1-0.1,0.2-0.1,0.4-0.1c0.1,0,0.3,0,0.4,0.1c0.1,0.1,0.1,0.2,0.1,0.4v1h4v-1c0-0.1,0-0.3,0.1-0.4c0.1-0.1,0.2-0.1,0.4-0.1
						c0.1,0,0.3,0,0.4,0.1c0.1,0.1,0.1,0.2,0.1,0.4v1h4C161.8,97,162,97.1,162.2,97.3z M161.5,98h-4v0.5c0,0.1,0,0.3-0.1,0.4
						c-0.1,0.1-0.2,0.1-0.4,0.1c-0.1,0-0.3,0-0.4-0.1c-0.1-0.1-0.1-0.3-0.1-0.4V98h-4v0.5c0,0.1,0,0.3-0.1,0.4
						c-0.1,0.1-0.2,0.1-0.4,0.1c-0.1,0-0.3,0-0.4-0.1c-0.1-0.1-0.1-0.3-0.1-0.4V98h-4v12.5h14V98z M151.4,101.6
						c0.1,0.1,0.1,0.2,0.1,0.4v1c0,0.1,0,0.3-0.1,0.4c-0.1,0.1-0.2,0.1-0.4,0.1h-1c-0.1,0-0.3,0-0.4-0.1c-0.1-0.1-0.1-0.2-0.1-0.4
						v-1c0-0.1,0-0.3,0.1-0.4c0.1-0.1,0.2-0.1,0.4-0.1h1C151.1,101.5,151.3,101.5,151.4,101.6z M151.4,105.6
						c0.1,0.1,0.1,0.2,0.1,0.4v1c0,0.1,0,0.3-0.1,0.4c-0.1,0.1-0.2,0.1-0.4,0.1h-1c-0.1,0-0.3,0-0.4-0.1c-0.1-0.1-0.1-0.2-0.1-0.4
						v-1c0-0.1,0-0.3,0.1-0.4c0.1-0.1,0.2-0.1,0.4-0.1h1C151.1,105.5,151.3,105.5,151.4,105.6z M155.4,101.6
						c0.1,0.1,0.1,0.2,0.1,0.4v1c0,0.1,0,0.3-0.1,0.4c-0.1,0.1-0.2,0.1-0.4,0.1h-1c-0.1,0-0.3,0-0.4-0.1c-0.1-0.1-0.1-0.2-0.1-0.4
						v-1c0-0.1,0-0.3,0.1-0.4c0.1-0.1,0.2-0.1,0.4-0.1h1C155.1,101.5,155.3,101.5,155.4,101.6z M155.4,105.6
						c0.1,0.1,0.1,0.2,0.1,0.4v1c0,0.1,0,0.3-0.1,0.4c-0.1,0.1-0.2,0.1-0.4,0.1h-1c-0.1,0-0.3,0-0.4-0.1c-0.1-0.1-0.1-0.2-0.1-0.4
						v-1c0-0.1,0-0.3,0.1-0.4c0.1-0.1,0.2-0.1,0.4-0.1h1C155.1,105.5,155.3,105.5,155.4,105.6z M157.6,103.4
						c-0.1-0.1-0.1-0.2-0.1-0.4v-1c0-0.1,0-0.3,0.1-0.4c0.1-0.1,0.2-0.1,0.4-0.1h1c0.1,0,0.3,0,0.4,0.1c0.1,0.1,0.1,0.2,0.1,0.4v1
						c0,0.1,0,0.3-0.1,0.4c-0.1,0.1-0.2,0.1-0.4,0.1h-1C157.9,103.5,157.7,103.5,157.6,103.4z M157.6,107.4
						c-0.1-0.1-0.1-0.2-0.1-0.4v-1c0-0.1,0-0.3,0.1-0.4c0.1-0.1,0.2-0.1,0.4-0.1h1c0.1,0,0.3,0,0.4,0.1c0.1,0.1,0.1,0.2,0.1,0.4v1
						c0,0.1,0,0.3-0.1,0.4c-0.1,0.1-0.2,0.1-0.4,0.1h-1C157.9,107.5,157.7,107.5,157.6,107.4z"/>
				</g>
			</g>
		</g>
	</g>
</g>
</svg>
