<?xml version="1.0" encoding="UTF-8"?>
<svg width="16px" height="16px" viewBox="0 0 16 16" version="1.1" xmlns="http://www.w3.org/2000/svg" xmlns:xlink="http://www.w3.org/1999/xlink">
    <!-- Generator: Sketch 44.1 (41455) - http://www.bohemiancoding.com/sketch -->
    <title>Shape</title>
    <desc>Created with Sketch.</desc>
    <defs></defs>
    <g id="Page-1" stroke="none" stroke-width="1" fill="none" fill-rule="evenodd">
        <g id="Desktop-Dashboard-V1" transform="translate(-27.000000, -232.000000)" fill-rule="nonzero" fill="#FFFFFF">
            <g id="Rgiht-Navigations" transform="translate(0.000000, 90.000000)">
                <g id="Workout-Section" transform="translate(0.000000, 119.000000)">
                    <path d="M28.9657895,39 C28.8894737,39 28.8210526,38.9710526 28.7684211,38.9184211 L27.0842105,37.2315789 C27.0315789,37.1789474 27.0052632,37.1105263 27.0052632,37.0342105 C27.0052632,36.9605263 27.0342105,36.8921053 27.0894737,36.8368421 L28.2473684,35.7 L27.0789474,34.5342105 C27.0263158,34.4815789 27,34.4131579 27,34.3368421 C27,34.2631579 27.0289474,34.1947368 27.0842105,34.1394737 L28.2342105,33.0210526 L27.0868421,31.8736842 C26.9789474,31.7657895 26.9789474,31.5894737 27.0868421,31.4815789 L28.7789474,29.8078947 C28.8342105,29.7552632 28.9026316,29.7263158 28.9763158,29.7263158 C29.0526316,29.7263158 29.1210526,29.7552632 29.1736842,29.8078947 L31.6684211,32.3052632 L36.3052632,27.6657895 L33.8105263,25.1684211 C33.7578947,25.1131579 33.7315789,25.0447368 33.7315789,24.9710526 C33.7315789,24.8947368 33.7605263,24.8263158 33.8105263,24.7736842 L35.4947368,23.0868421 C35.5473684,23.0342105 35.6157895,23.0052632 35.6894737,23.0052632 C35.7631579,23.0052632 35.8315789,23.0342105 35.8842105,23.0868421 L37.0289474,24.2342105 L38.15,23.0868421 C38.2026316,23.0342105 38.2736842,23.0026316 38.3473684,23.0026316 C38.4210526,23.0026316 38.4921053,23.0315789 38.5447368,23.0842105 L39.7026316,24.2447368 L40.8421053,23.0842105 C40.8947368,23.0315789 40.9657895,23 41.0394737,23 C41.1157895,23 41.1842105,23.0289474 41.2368421,23.0815789 L42.9210526,24.7684211 C42.9736842,24.8210526 43,24.8894737 43,24.9657895 C43,25.0394737 42.9710526,25.1078947 42.9157895,25.1631579 L41.7578947,26.3 L42.9157895,27.4605263 C42.9684211,27.5131579 42.9947368,27.5815789 42.9947368,27.6578947 C42.9947368,27.7289474 42.9657895,27.8 42.9184211,27.8473684 L41.7736842,28.9710526 L42.9184211,30.1184211 C42.9710526,30.1736842 42.9973684,30.2421053 42.9973684,30.3157895 C42.9973684,30.3921053 42.9684211,30.4605263 42.9184211,30.5131579 L41.2342105,32.2 C41.1789474,32.2526316 41.1105263,32.2815789 41.0368421,32.2815789 C40.9605263,32.2815789 40.8921053,32.2526316 40.8394737,32.2 L38.3447368,29.7026316 L33.7105263,34.3421053 L36.2052632,36.8394737 C36.3131579,36.9473684 36.3131579,37.1236842 36.2052632,37.2315789 L34.5210526,38.9184211 C34.4657895,38.9710526 34.3973684,39 34.3236842,39 C34.2473684,39 34.1789474,38.9710526 34.1263158,38.9184211 L32.9763158,37.7684211 L31.8473684,38.9131579 C31.7947368,38.9657895 31.7236842,38.9973684 31.65,38.9973684 C31.5736842,38.9973684 31.5052632,38.9684211 31.4526316,38.9157895 L30.2973684,37.7578947 L29.1605263,38.9184211 C29.1078947,38.9710526 29.0394737,39 28.9657895,39 Z M27.6736842,31.6789474 L34.3210526,38.3342105 L35.6131579,37.0421053 L28.9657895,30.3868421 L27.6736842,31.6789474 Z M27.6763158,37.0421053 L28.9657895,38.3315789 L29.9105263,37.3684211 L28.6394737,36.0973684 L27.6763158,37.0421053 Z M27.6736842,34.3473684 L31.65,38.3289474 L32.5894737,37.3868421 L28.6263158,33.4184211 L27.6736842,34.3473684 Z M32.0473684,32.6842105 L33.3157895,33.9526316 L37.9526316,29.3131579 L36.6842105,28.0421053 L32.0473684,32.6842105 Z M34.3868421,24.9578947 L41.0342105,31.6131579 L42.3263158,30.3210526 L35.6789474,23.6657895 L34.3868421,24.9578947 Z M37.4131579,24.6184211 L41.3763158,28.5842105 L42.3263158,27.6473684 L38.3447368,23.6684211 L37.4131579,24.6184211 Z M40.0947368,24.6342105 L41.3631579,25.9026316 L42.3263158,24.9578947 L41.0368421,23.6684211 L40.0947368,24.6342105 Z" id="Shape"></path>
                </g>
            </g>
        </g>
    </g>
</svg>