<?xml version="1.0" encoding="utf-8"?>
<!-- Generator: Adobe Illustrator 18.1.1, SVG Export Plug-In . SVG Version: 6.00 Build 0)  -->
<svg version="1.1" id="Layer_1" xmlns="http://www.w3.org/2000/svg" xmlns:xlink="http://www.w3.org/1999/xlink" x="0px" y="0px"
	 viewBox="119.5 73.5 16 16" enable-background="new 119.5 73.5 16 16" xml:space="preserve">
<title>apple - FontAwesome</title>
<desc>Created with Sketch.</desc>
<g id="Page-1">
	<g id="Desktop-Dashboard-V1" transform="translate(-893.000000, -277.000000)">
		<g id="Downloads" transform="translate(873.000000, 190.000000)">
			<path id="apple---FontAwesome" fill="#C11083" d="M153.6,171.9c-0.2,0.7-0.6,1.5-1.1,2.1c-0.8,1.2-1.5,1.8-2.2,1.8
				c-0.3,0-0.7-0.1-1.3-0.3c-0.5-0.2-1-0.3-1.3-0.3c-0.4,0-0.8,0.1-1.3,0.3s-0.9,0.3-1.2,0.3c-0.9,0-1.8-0.8-2.6-2.2
				c-0.9-1.5-1.3-2.9-1.3-4.4c0-1.4,0.3-2.4,1-3.2c0.7-0.9,1.5-1.3,2.4-1.3c0.4,0,1,0.1,1.6,0.3c0.6,0.2,1,0.3,1.2,0.3
				c0.3,0,0.7-0.1,1.3-0.3s1.1-0.3,1.5-0.3c0.7,0,1.3,0.2,1.8,0.6c0.3,0.2,0.6,0.5,0.9,0.9c-0.5,0.4-0.8,0.7-1,1.1
				c-0.4,0.6-0.6,1.2-0.6,1.8c0,0.7,0.2,1.4,0.6,1.9C152.6,171.4,153.1,171.8,153.6,171.9z M150.4,161.6c0,0.4-0.1,0.8-0.3,1.2
				c-0.2,0.4-0.5,0.9-0.8,1.2s-0.6,0.5-1,0.6c-0.2,0.1-0.5,0.1-0.9,0.2c0-0.9,0.3-1.7,0.7-2.2c0.4-0.6,1.2-1.1,2.1-1.3
				c0,0.1,0,0.1,0,0.2C150.4,161.5,150.4,161.6,150.4,161.6z"/>
		</g>
	</g>
</g>
</svg>
