<?xml version="1.0" encoding="utf-8"?>
<!-- Generator: Adobe Illustrator 18.1.1, SVG Export Plug-In . SVG Version: 6.00 Build 0)  -->
<svg version="1.1" id="Layer_1" xmlns="http://www.w3.org/2000/svg" xmlns:xlink="http://www.w3.org/1999/xlink" x="0px" y="0px"
	 viewBox="-119 74 16 16" enable-background="new -119 74 16 16" xml:space="preserve">
<title>user - simple-line-icons</title>
<desc>Created with Sketch.</desc>
<g id="Page-1">
	<g id="Desktop-Dashboard-V1" transform="translate(-27.000000, -350.000000)">
		<g id="Rgiht-Navigations" transform="translate(0.000000, 90.000000)">
			<g id="User-Control" transform="translate(0.000000, 237.000000)">
				<g enable-background="new    ">
					<path fill="#FFFFFF" d="M-79.5,100.5v2.5c0,0.7-0.2,1.5-0.5,2.4c-0.3,0.9-0.8,1.5-1.4,2l4.3,2.1l0.3,0.1
						c0.2,0.1,0.3,0.2,0.5,0.3c0.2,0.2,0.3,0.3,0.3,0.5v1.5c0,0.3-0.1,0.5-0.3,0.7c-0.2,0.2-0.4,0.3-0.7,0.3h-14
						c-0.3,0-0.5-0.1-0.7-0.3c-0.2-0.2-0.3-0.4-0.3-0.7v-1.5c0-0.2,0.1-0.3,0.3-0.5c0.2-0.2,0.3-0.3,0.4-0.4
						c0.1-0.1,0.2-0.1,0.3-0.1l4.4-2.1c-0.6-0.5-1.1-1.2-1.4-2.1s-0.5-1.7-0.5-2.3v-2.5c0-0.8,0.5-1.6,1.4-2.4
						c0.9-0.8,2-1.1,3.1-1.1s2.1,0.4,3.1,1.1C-80,98.9-79.5,99.7-79.5,100.5z M-86.4,98.8c-0.8,0.6-1.1,1.1-1.1,1.7v2.5
						c0,0.6,0.1,1.2,0.4,2c0.3,0.7,0.6,1.3,1.1,1.7c0.3,0.3,0.4,0.6,0.3,0.9c0,0.4-0.2,0.6-0.6,0.8l-4.4,2.1
						c-0.3,0.1-0.4,0.3-0.4,0.6v1h14v-1c0-0.3-0.1-0.5-0.4-0.6h0l-4.3-2.1c-0.3-0.2-0.5-0.4-0.6-0.8c0-0.4,0.1-0.7,0.4-0.9
						c0.5-0.4,0.8-1,1.1-1.7c0.3-0.7,0.4-1.4,0.4-2v-2.5c0-0.5-0.4-1.1-1.1-1.7S-83.2,98-84,98C-84.8,98-85.6,98.3-86.4,98.8z"/>
				</g>
			</g>
		</g>
	</g>
</g>
</svg>
