<?xml version="1.0" encoding="utf-8"?>
<!-- Generator: Adobe Illustrator 18.1.1, SVG Export Plug-In . SVG Version: 6.00 Build 0)  -->
<svg version="1.1" id="Layer_1" xmlns="http://www.w3.org/2000/svg" xmlns:xlink="http://www.w3.org/1999/xlink" x="0px" y="0px"
	 viewBox="-118.5 73.5 16 16" enable-background="new -118.5 73.5 16 16" xml:space="preserve">
<title></title>
<desc>Created with Sketch.</desc>
<g id="Page-1">
	<g id="Desktop-Dashboard-V1" transform="translate(-28.000000, -176.000000)">
		<g id="Rgiht-Navigations" transform="translate(0.000000, 90.000000)">
			<g id="Video-Gallery" transform="translate(0.000000, 60.000000)">
				<path id="_xF4CC_" fill="#FFFFFF" d="M-80.7,102.6c0.4,0,0.7,0.1,0.9,0.4c0.2,0.2,0.4,0.5,0.4,0.9v7.2c0,0.4-0.1,0.7-0.4,0.9
					c-0.2,0.3-0.5,0.4-0.9,0.4h-8.5c-0.4,0-0.7-0.1-1-0.4c-0.3-0.3-0.4-0.6-0.4-0.9v-7.2c0-0.4,0.1-0.7,0.4-0.9
					c0.3-0.2,0.6-0.4,1-0.4H-80.7z M-80.1,111.1v-7.2c0-0.2-0.1-0.3-0.2-0.4c-0.1-0.1-0.3-0.2-0.5-0.2h-8.5c-0.2,0-0.3,0.1-0.5,0.2
					c-0.1,0.1-0.2,0.3-0.2,0.4v7.2c0,0.2,0.1,0.3,0.2,0.5c0.2,0.1,0.3,0.2,0.5,0.2h8.5c0.2,0,0.3-0.1,0.4-0.2
					S-80.1,111.2-80.1,111.1z M-78.3,105.9l3.8-2v7.3l-3.8-2V105.9z M-75.2,105l-2.4,1.3v2.5l2.4,1.3V105z"/>
			</g>
		</g>
	</g>
</g>
</svg>
