<?xml version="1.0" encoding="utf-8"?>
<!-- Generator: Adobe Illustrator 18.1.1, SVG Export Plug-In . SVG Version: 6.00 Build 0)  -->
<svg version="1.1" id="Layer_1" xmlns="http://www.w3.org/2000/svg" xmlns:xlink="http://www.w3.org/1999/xlink" x="0px" y="0px"
	 viewBox="-126.5 66 32 32" enable-background="new -126.5 66 32 32" xml:space="preserve">
<title>$</title>
<desc>Created with Sketch.</desc>
<g id="Page-1">
	<g id="Desktop-Dashboard-V1" transform="translate(-486.000000, -280.000000)">
		<g id="Total-Revenue" transform="translate(250.000000, 190.000000)">
			<g id="USD-icon" transform="translate(212.000000, 73.000000)">
				<path id="_x24_" fill="#78C904" d="M-87.1,90.5c-1.1,0-1.9,0.2-2.5,0.7c-0.6,0.5-0.9,1.2-0.9,2.3c0,0.5,0.1,0.9,0.3,1.2
					c0.2,0.3,0.5,0.6,0.8,0.9c0.3,0.2,0.7,0.4,1.1,0.6c0.4,0.2,0.8,0.3,1.2,0.4V90.5z M-90.9,103.2c0,1.3,0.3,2.4,0.9,3.1
					c0.6,0.8,1.6,1.2,3,1.2v-7.3c-0.8-0.2-1.6-0.5-2.4-0.8c-0.8-0.3-1.5-0.7-2.2-1.2c-0.7-0.5-1.2-1.1-1.6-1.8s-0.6-1.7-0.6-2.8
					c0-1,0.2-1.8,0.6-2.5s0.9-1.3,1.5-1.8c0.6-0.5,1.4-0.9,2.2-1.1c0.8-0.3,1.7-0.4,2.6-0.4v-2.3h1.3v2.3c0.9,0,1.8,0.1,2.6,0.4
					c0.8,0.2,1.5,0.6,2.1,1.1s1.1,1.1,1.4,1.8c0.4,0.7,0.5,1.6,0.5,2.6h-3.4c0-1-0.3-1.8-0.8-2.3c-0.5-0.5-1.3-0.8-2.4-0.8v6.3
					c0.9,0.2,1.8,0.5,2.6,0.8c0.9,0.3,1.6,0.7,2.3,1.2c0.7,0.5,1.2,1.1,1.6,1.9c0.4,0.7,0.6,1.7,0.6,2.7c0,1.1-0.2,2.1-0.6,2.9
					c-0.4,0.8-0.9,1.5-1.5,2.1c-0.6,0.6-1.4,1-2.3,1.3c-0.9,0.3-1.8,0.5-2.8,0.5v2.3h-1.3v-2.3c-1.1,0-2.1-0.2-3-0.5
					c-0.9-0.3-1.7-0.8-2.3-1.4c-0.6-0.6-1.1-1.3-1.5-2.2c-0.3-0.9-0.5-1.8-0.5-3H-90.9z M-85.8,107.5c1.1-0.1,2-0.4,2.7-0.9
					c0.7-0.6,1-1.4,1-2.6c0-0.6-0.1-1-0.3-1.4c-0.2-0.4-0.5-0.7-0.8-1c-0.4-0.3-0.7-0.5-1.2-0.6c-0.4-0.2-0.9-0.3-1.3-0.4V107.5z"/>
			</g>
		</g>
	</g>
</g>
</svg>
