<?xml version="1.0" encoding="UTF-8"?>
<svg width="38px" height="23px" viewBox="0 0 38 23" version="1.1" xmlns="http://www.w3.org/2000/svg" xmlns:xlink="http://www.w3.org/1999/xlink">
    <!-- Generator: Sketch 45.2 (43514) - http://www.bohemiancoding.com/sketch -->
    <title>ion-ios-eye - Ionicons</title>
    <desc>Created with Sketch.</desc>
    <defs></defs>
    <g id="Page-1" stroke="none" stroke-width="1" fill="none" fill-rule="evenodd">
        <g id="Desktop-Dashboard-V1" transform="translate(-300.000000, -666.000000)" fill="#78C904">
            <g id="View-Graph" transform="translate(268.000000, 635.000000)">
                <path d="M69.4023438,42.25 L69.5,42.3476562 L68.9140625,42.9335938 C65.6588379,46.1888184 63.1198008,48.4348896 61.296875,49.671875 C57.7812324,52.0156367 54.2656426,53.1875 50.75,53.1875 C48.2109248,53.1875 45.7858188,52.6341201 43.4746094,51.5273438 C41.1633999,50.4205674 39.3893291,49.3138076 38.1523438,48.2070312 C36.9153584,47.1002549 35.09246,45.34246 32.6835938,42.9335938 L32,42.25 L32.0976562,42.1523438 C35.6784033,38.5064922 38.7382686,35.8697998 41.2773438,34.2421875 C44.4023594,32.2890527 47.5598799,31.3125 50.75,31.3125 C56.8698223,31.3125 63.087208,34.9582969 69.4023438,42.25 Z M50.75,50.0625 C52.8984482,50.0625 54.7376226,49.2975337 56.2675781,47.7675781 C57.7975337,46.2376226 58.5625,44.3984482 58.5625,42.25 C58.5625,40.1015518 57.7975337,38.2623774 56.2675781,36.7324219 C54.7376226,35.2024663 52.8984482,34.4375 50.75,34.4375 C48.6015518,34.4375 46.7623774,35.2024663 45.2324219,36.7324219 C43.7024663,38.2623774 42.9375,40.1015518 42.9375,42.25 C42.9375,44.3984482 43.7024663,46.2376226 45.2324219,47.7675781 C46.7623774,49.2975337 48.6015518,50.0625 50.75,50.0625 Z M50.1640625,39.4179688 C50.1640625,40.3294316 50.505856,41.1269497 51.1894531,41.8105469 C51.8730503,42.494144 52.6705684,42.8359375 53.5820312,42.8359375 C54.2981807,42.8359375 54.9166641,42.640627 55.4375,42.25 C55.4375,43.5520898 54.9817754,44.6588496 54.0703125,45.5703125 C53.1588496,46.4817754 52.0520898,46.9375 50.75,46.9375 C49.4479102,46.9375 48.3411504,46.4817754 47.4296875,45.5703125 C46.5182246,44.6588496 46.0625,43.5520898 46.0625,42.25 C46.0625,40.9479102 46.5182246,39.8411504 47.4296875,38.9296875 C48.3411504,38.0182246 49.4479102,37.5625 50.75,37.5625 C50.359373,38.0833359 50.1640625,38.7018193 50.1640625,39.4179688 Z" id="ion-ios-eye---Ionicons"></path>
            </g>
        </g>
    </g>
</svg>