<?xml version="1.0" encoding="utf-8"?>
<!-- Generator: Adobe Illustrator 18.1.1, SVG Export Plug-In . SVG Version: 6.00 Build 0)  -->
<svg version="1.1" id="Layer_1" xmlns="http://www.w3.org/2000/svg" xmlns:xlink="http://www.w3.org/1999/xlink" x="0px" y="0px"
	 viewBox="119.5 73.5 16 16" enable-background="new 119.5 73.5 16 16" xml:space="preserve">
<title>home - simple-line-icons</title>
<desc>Created with Sketch.</desc>
<g id="Page-1">
	<g id="Desktop-Dashboard-V1" transform="translate(-26.000000, -112.000000)">
		<g id="Rgiht-Navigations" transform="translate(0.000000, 90.000000)">
			<g id="Dashboard">
				<g enable-background="new    ">
					<path fill="#FFFFFF" d="M161.1,104.2c-0.1,0.1-0.2,0.2-0.3,0.2c-0.1,0-0.3-0.1-0.4-0.2l-0.7-0.7v7.2c0,0.1-0.1,0.2-0.2,0.3
						s-0.2,0.2-0.3,0.2h-3.4c-0.1,0-0.3-0.1-0.4-0.2c-0.1-0.1-0.1-0.2-0.1-0.3V106h-3.9v4.8c0,0.1,0,0.2-0.1,0.3s-0.2,0.2-0.4,0.2
						h-3.4c-0.1,0-0.2-0.1-0.3-0.2c-0.1-0.1-0.2-0.2-0.2-0.3v-7.2l-0.7,0.7c-0.2,0.2-0.5,0.2-0.7,0c-0.2-0.2-0.2-0.5,0-0.7l7.2-7.6
						c0.1-0.1,0.2-0.2,0.4-0.2s0.3,0.1,0.4,0.2l7.2,7.6C161.3,103.8,161.3,104,161.1,104.2z M158.8,102.6l-5.3-5.6l-5.3,5.6v0.1v7.6
						h2.4v-4.8c0-0.1,0-0.3,0.1-0.4c0.1-0.1,0.2-0.1,0.4-0.1h4.8c0.1,0,0.3,0,0.4,0.1c0.1,0.1,0.1,0.2,0.1,0.4v4.8h2.4V102.6
						L158.8,102.6z"/>
				</g>
			</g>
		</g>
	</g>
</g>
</svg>
